# Blender 4.5.0
# www.blender.org
mtllib GrassQuads.mtl
o Plane
v -1.000000 -0.001093 -0.000000
v 1.000000 -0.001093 -0.000000
v -1.000000 1.998907 0.000000
v 1.000000 1.998907 0.000000
vn -0.0000 -0.0000 1.0000
vt 0.000000 0.000000
vt 1.000000 0.000000
vt 1.000000 1.000000
vt 0.000000 1.000000
s 0
f 1/1/1 2/2/1 4/3/1 3/4/1
o Plane.001
v 0.000000 -0.001093 1.000000
v -0.000000 -0.001093 -1.000000
v 0.000000 1.998907 1.000000
v 0.000000 1.998907 -1.000000
vn 1.0000 -0.0000 -0.0000
vt 0.000000 0.000000
vt 1.000000 0.000000
vt 1.000000 1.000000
vt 0.000000 1.000000
s 0
f 5/5/2 6/6/2 8/7/2 7/8/2
o Plane.002
v -0.707107 -0.001093 0.707107
v 0.707107 -0.001093 -0.707107
v -0.707107 1.998907 0.707107
v 0.707107 1.998907 -0.707107
vn 0.7071 -0.0000 0.7071
vt 0.000000 0.000000
vt 1.000000 0.000000
vt 1.000000 1.000000
vt 0.000000 1.000000
s 0
f 9/9/3 10/10/3 12/11/3 11/12/3
