# Blender 4.5.0
# www.blender.org
mtllib sphere.mtl
o Sphere
v 0.116978 0.939693 -0.321394
v 0.219846 0.766044 -0.604023
v 0.296198 0.500000 -0.813798
v 0.336824 0.173648 -0.925417
v 0.336824 -0.173648 -0.925417
v 0.296198 -0.500000 -0.813798
v 0.219846 -0.766044 -0.604023
v 0.116978 -0.939693 -0.321394
v 0.219846 0.939693 -0.262003
v 0.413176 0.766044 -0.492404
v 0.556670 0.500000 -0.663414
v 0.633022 0.173648 -0.754406
v 0.633022 -0.173648 -0.754406
v 0.556670 -0.500000 -0.663414
v 0.413176 -0.766044 -0.492404
v 0.219846 -0.939693 -0.262003
v 0.296198 0.939693 -0.171010
v 0.556670 0.766044 -0.321394
v 0.750000 0.500000 -0.433013
v 0.852868 0.173648 -0.492404
v 0.852868 -0.173648 -0.492404
v 0.750000 -0.500000 -0.433013
v 0.556670 -0.766044 -0.321394
v 0.296198 -0.939693 -0.171010
v 0.000000 1.000000 0.000000
v 0.336824 0.939693 -0.059391
v 0.633022 0.766044 -0.111619
v 0.852868 0.500000 -0.150384
v 0.969846 0.173648 -0.171010
v 0.969846 -0.173648 -0.171010
v 0.852868 -0.500000 -0.150384
v 0.633022 -0.766044 -0.111619
v 0.336824 -0.939693 -0.059391
v 0.336824 0.939693 0.059391
v 0.633022 0.766044 0.111619
v 0.852868 0.500000 0.150384
v 0.969846 0.173648 0.171010
v 0.969846 -0.173648 0.171010
v 0.852868 -0.500000 0.150384
v 0.633022 -0.766044 0.111619
v 0.336824 -0.939693 0.059391
v 0.296198 0.939693 0.171010
v 0.556670 0.766044 0.321394
v 0.750000 0.500000 0.433013
v 0.852868 0.173648 0.492404
v 0.852868 -0.173648 0.492404
v 0.750000 -0.500000 0.433013
v 0.556670 -0.766044 0.321394
v 0.296198 -0.939693 0.171010
v 0.219846 0.939693 0.262003
v 0.413176 0.766044 0.492404
v 0.556670 0.500000 0.663414
v 0.633022 0.173648 0.754406
v 0.633022 -0.173648 0.754406
v 0.556670 -0.500000 0.663414
v 0.413176 -0.766044 0.492404
v 0.219846 -0.939693 0.262003
v 0.116978 0.939693 0.321394
v 0.219846 0.766044 0.604023
v 0.296198 0.500000 0.813798
v 0.336824 0.173648 0.925416
v 0.336824 -0.173648 0.925416
v 0.296198 -0.500000 0.813798
v 0.219846 -0.766044 0.604023
v 0.116978 -0.939693 0.321394
v 0.000000 0.939693 0.342020
v 0.000000 0.766044 0.642788
v 0.000000 0.500000 0.866025
v 0.000000 0.173648 0.984808
v 0.000000 -0.173648 0.984808
v 0.000000 -0.500000 0.866025
v 0.000000 -0.766044 0.642788
v 0.000000 -0.939693 0.342020
v -0.116978 0.939693 0.321394
v -0.219846 0.766044 0.604023
v -0.296198 0.500000 0.813798
v -0.336824 0.173648 0.925416
v -0.336824 -0.173648 0.925416
v -0.296198 -0.500000 0.813798
v -0.219846 -0.766044 0.604023
v -0.116978 -0.939693 0.321394
v 0.000000 -1.000000 0.000000
v -0.219846 0.939693 0.262003
v -0.413176 0.766044 0.492404
v -0.556670 0.500000 0.663414
v -0.633022 0.173648 0.754407
v -0.633022 -0.173648 0.754407
v -0.556670 -0.500000 0.663414
v -0.413176 -0.766044 0.492404
v -0.219846 -0.939693 0.262003
v -0.296198 0.939693 0.171010
v -0.556670 0.766044 0.321394
v -0.750000 0.500000 0.433013
v -0.852868 0.173648 0.492404
v -0.852868 -0.173648 0.492404
v -0.750000 -0.500000 0.433013
v -0.556670 -0.766044 0.321394
v -0.296198 -0.939693 0.171010
v -0.336824 0.939693 0.059391
v -0.633022 0.766044 0.111619
v -0.852868 0.500000 0.150384
v -0.969846 0.173648 0.171010
v -0.969846 -0.173648 0.171010
v -0.852868 -0.500000 0.150384
v -0.633022 -0.766044 0.111619
v -0.336824 -0.939693 0.059391
v -0.336824 0.939693 -0.059391
v -0.633022 0.766044 -0.111619
v -0.852869 0.500000 -0.150384
v -0.969846 0.173648 -0.171010
v -0.969846 -0.173648 -0.171010
v -0.852869 -0.500000 -0.150384
v -0.633022 -0.766044 -0.111619
v -0.336824 -0.939693 -0.059391
v -0.296198 0.939693 -0.171010
v -0.556670 0.766044 -0.321394
v -0.750000 0.500000 -0.433012
v -0.852868 0.173648 -0.492404
v -0.852868 -0.173648 -0.492404
v -0.750000 -0.500000 -0.433012
v -0.556670 -0.766044 -0.321394
v -0.296198 -0.939693 -0.171010
v -0.219846 0.939693 -0.262003
v -0.413176 0.766044 -0.492404
v -0.556671 0.500000 -0.663414
v -0.633022 0.173648 -0.754406
v -0.633022 -0.173648 -0.754406
v -0.556671 -0.500000 -0.663414
v -0.413176 -0.766044 -0.492404
v -0.219846 -0.939693 -0.262003
v -0.116978 0.939693 -0.321394
v -0.219846 0.766044 -0.604023
v -0.296198 0.500000 -0.813798
v -0.336824 0.173648 -0.925416
v -0.336824 -0.173648 -0.925416
v -0.296198 -0.500000 -0.813798
v -0.219846 -0.766044 -0.604023
v -0.116978 -0.939693 -0.321394
v -0.000000 0.939693 -0.342020
v -0.000000 0.766044 -0.642787
v -0.000000 0.500000 -0.866025
v -0.000000 0.173648 -0.984808
v -0.000000 -0.173648 -0.984808
v -0.000000 -0.500000 -0.866025
v -0.000000 -0.766044 -0.642787
v -0.000000 -0.939693 -0.342020
vn 0.0878 -0.8627 -0.4981
vn 0.1736 -0.0000 -0.9848
vn 0.0878 0.8627 -0.4981
vn 0.0306 -0.9843 -0.1736
vn 0.1635 -0.3374 -0.9271
vn 0.1339 0.6370 -0.7592
vn 0.1339 -0.6370 -0.7592
vn 0.1635 0.3374 -0.9271
vn 0.0306 0.9843 -0.1736
vn 0.4707 -0.3374 -0.8152
vn 0.3854 0.6370 -0.6676
vn 0.3854 -0.6370 -0.6676
vn 0.4707 0.3374 -0.8152
vn 0.0881 0.9843 -0.1526
vn 0.2529 -0.8627 -0.4380
vn 0.5000 -0.0000 -0.8660
vn 0.2529 0.8627 -0.4380
vn 0.0881 -0.9843 -0.1526
vn 0.7211 0.3374 -0.6051
vn 0.1350 0.9843 -0.1133
vn 0.3874 -0.8627 -0.3251
vn 0.7660 -0.0000 -0.6428
vn 0.3874 0.8627 -0.3251
vn 0.1350 -0.9843 -0.1133
vn 0.7211 -0.3374 -0.6051
vn 0.5905 0.6370 -0.4955
vn 0.5905 -0.6370 -0.4955
vn 0.4753 0.8627 -0.1730
vn 0.1656 -0.9843 -0.0603
vn 0.8846 -0.3374 -0.3220
vn 0.7244 0.6370 -0.2637
vn 0.7244 -0.6370 -0.2637
vn 0.8846 0.3374 -0.3220
vn 0.1656 0.9843 -0.0603
vn 0.4753 -0.8627 -0.1730
vn 0.9397 -0.0000 -0.3420
vn 0.7709 -0.6370 -0.0000
vn 0.9414 0.3374 -0.0000
vn 0.1762 0.9843 -0.0000
vn 0.5058 -0.8627 -0.0000
vn 1.0000 -0.0000 -0.0000
vn 0.5058 0.8627 -0.0000
vn 0.1762 -0.9843 -0.0000
vn 0.9414 -0.3374 -0.0000
vn 0.7709 0.6370 -0.0000
vn 0.4753 -0.8627 0.1730
vn 0.9397 -0.0000 0.3420
vn 0.4753 0.8627 0.1730
vn 0.1656 -0.9843 0.0603
vn 0.8846 -0.3374 0.3220
vn 0.7244 0.6370 0.2636
vn 0.7244 -0.6370 0.2636
vn 0.8846 0.3374 0.3220
vn 0.1656 0.9843 0.0603
vn 0.7211 -0.3374 0.6051
vn 0.5905 0.6370 0.4955
vn 0.5905 -0.6370 0.4955
vn 0.7211 0.3374 0.6051
vn 0.1350 0.9843 0.1133
vn 0.3874 -0.8627 0.3251
vn 0.7660 -0.0000 0.6428
vn 0.3874 0.8627 0.3251
vn 0.1350 -0.9843 0.1133
vn 0.4707 0.3374 0.8152
vn 0.0881 0.9843 0.1526
vn 0.2529 -0.8627 0.4380
vn 0.5000 -0.0000 0.8660
vn 0.2529 0.8627 0.4380
vn 0.0881 -0.9843 0.1526
vn 0.4707 -0.3374 0.8152
vn 0.3854 0.6370 0.6676
vn 0.3854 -0.6370 0.6676
vn 0.0878 0.8627 0.4981
vn 0.0306 -0.9843 0.1736
vn 0.1635 -0.3374 0.9271
vn 0.1339 0.6370 0.7592
vn 0.1339 -0.6370 0.7592
vn 0.1635 0.3374 0.9271
vn 0.0306 0.9843 0.1736
vn 0.0878 -0.8627 0.4981
vn 0.1736 -0.0000 0.9848
vn -0.1339 -0.6370 0.7592
vn -0.1635 0.3374 0.9271
vn -0.0306 0.9843 0.1736
vn -0.0878 -0.8627 0.4981
vn -0.1736 -0.0000 0.9848
vn -0.0878 0.8627 0.4981
vn -0.0306 -0.9843 0.1736
vn -0.1635 -0.3374 0.9271
vn -0.1339 0.6370 0.7592
vn -0.5000 -0.0000 0.8660
vn -0.2529 0.8627 0.4380
vn -0.0881 -0.9843 0.1526
vn -0.4707 -0.3374 0.8152
vn -0.3854 0.6370 0.6676
vn -0.3854 -0.6370 0.6676
vn -0.4707 0.3374 0.8152
vn -0.0881 0.9843 0.1526
vn -0.2529 -0.8627 0.4380
vn -0.5905 0.6370 0.4955
vn -0.5905 -0.6370 0.4955
vn -0.7211 0.3374 0.6051
vn -0.1350 0.9843 0.1133
vn -0.3874 -0.8627 0.3251
vn -0.7660 -0.0000 0.6428
vn -0.3874 0.8627 0.3251
vn -0.1350 -0.9843 0.1133
vn -0.7211 -0.3374 0.6051
vn -0.1656 0.9843 0.0603
vn -0.4753 -0.8627 0.1730
vn -0.9397 -0.0000 0.3420
vn -0.4753 0.8627 0.1730
vn -0.1656 -0.9843 0.0603
vn -0.8846 -0.3374 0.3220
vn -0.7244 0.6370 0.2637
vn -0.7244 -0.6370 0.2637
vn -0.8846 0.3374 0.3220
vn -0.1762 -0.9843 -0.0000
vn -0.9414 -0.3374 -0.0000
vn -0.7709 0.6370 -0.0000
vn -0.7709 -0.6370 -0.0000
vn -0.9414 0.3374 -0.0000
vn -0.1762 0.9843 -0.0000
vn -0.5058 -0.8627 -0.0000
vn -1.0000 -0.0000 -0.0000
vn -0.5058 0.8627 -0.0000
vn -0.7244 -0.6370 -0.2636
vn -0.8846 0.3374 -0.3220
vn -0.1656 0.9843 -0.0603
vn -0.4753 -0.8627 -0.1730
vn -0.9397 -0.0000 -0.3420
vn -0.4753 0.8627 -0.1730
vn -0.1656 -0.9843 -0.0603
vn -0.8846 -0.3374 -0.3220
vn -0.7244 0.6370 -0.2636
vn -0.7660 -0.0000 -0.6428
vn -0.3874 0.8627 -0.3251
vn -0.1350 -0.9843 -0.1133
vn -0.7211 -0.3374 -0.6051
vn -0.5905 0.6370 -0.4955
vn -0.5905 -0.6370 -0.4955
vn -0.7211 0.3374 -0.6051
vn -0.1350 0.9843 -0.1133
vn -0.3874 -0.8627 -0.3251
vn -0.3854 0.6370 -0.6676
vn -0.3854 -0.6370 -0.6676
vn -0.4707 0.3374 -0.8152
vn -0.0881 0.9843 -0.1526
vn -0.2529 -0.8627 -0.4380
vn -0.5000 -0.0000 -0.8660
vn -0.2529 0.8627 -0.4380
vn -0.0881 -0.9843 -0.1526
vn -0.4707 -0.3374 -0.8152
vn -0.0306 0.9843 -0.1736
vn -0.0878 -0.8627 -0.4981
vn -0.1736 -0.0000 -0.9848
vn -0.0878 0.8627 -0.4981
vn -0.0306 -0.9843 -0.1736
vn -0.1635 -0.3374 -0.9271
vn -0.1339 0.6370 -0.7592
vn -0.1339 -0.6370 -0.7592
vn -0.1635 0.3374 -0.9271
vt 0.722222 0.111111
vt 0.722222 0.222222
vt 0.666667 0.222222
vt 0.666667 0.111111
vt 0.722222 0.444444
vt 0.722222 0.555556
vt 0.666667 0.555556
vt 0.666667 0.444444
vt 0.722222 0.777778
vt 0.722222 0.888889
vt 0.666667 0.888889
vt 0.666667 0.777778
vt 0.694444 0.000000
vt 0.722222 0.333333
vt 0.666667 0.333333
vt 0.722222 0.666667
vt 0.666667 0.666667
vt 0.694444 1.000000
vt 0.611111 0.444444
vt 0.611111 0.333333
vt 0.611111 0.777778
vt 0.611111 0.666667
vt 0.611111 0.222222
vt 0.611111 0.555556
vt 0.638889 1.000000
vt 0.611111 0.888889
vt 0.611111 0.111111
vt 0.638889 0.000000
vt 0.555556 0.666667
vt 0.555555 0.555556
vt 0.583333 1.000000
vt 0.555555 0.888889
vt 0.555556 0.222222
vt 0.555555 0.111111
vt 0.555555 0.444444
vt 0.555556 0.777778
vt 0.583333 0.000000
vt 0.555556 0.333333
vt 0.500000 0.888889
vt 0.500000 0.777778
vt 0.527778 0.000000
vt 0.500000 0.111111
vt 0.500000 0.444444
vt 0.500000 0.333333
vt 0.500000 0.666667
vt 0.500000 0.222222
vt 0.500000 0.555556
vt 0.527778 1.000000
vt 0.444444 0.333333
vt 0.444444 0.222222
vt 0.444444 0.666667
vt 0.444444 0.555556
vt 0.472222 1.000000
vt 0.444444 0.888889
vt 0.444444 0.111111
vt 0.444444 0.444444
vt 0.444444 0.777778
vt 0.472222 0.000000
vt 0.388889 0.222222
vt 0.388889 0.111111
vt 0.388889 0.555556
vt 0.388889 0.444444
vt 0.388889 0.888889
vt 0.388889 0.777778
vt 0.416667 0.000000
vt 0.388889 0.333333
vt 0.388889 0.666667
vt 0.416667 1.000000
vt 0.333333 0.444444
vt 0.333333 0.333333
vt 0.333333 0.777778
vt 0.333333 0.666667
vt 0.333333 0.222222
vt 0.333333 0.555556
vt 0.361111 1.000000
vt 0.333333 0.888889
vt 0.333333 0.111111
vt 0.361111 0.000000
vt 0.277778 0.666667
vt 0.277778 0.555556
vt 0.305556 1.000000
vt 0.277778 0.888889
vt 0.277778 0.222222
vt 0.277778 0.111111
vt 0.277778 0.444444
vt 0.277778 0.777778
vt 0.305556 0.000000
vt 0.277778 0.333333
vt 0.222222 0.888889
vt 0.222222 0.777778
vt 0.250000 0.000000
vt 0.222222 0.111111
vt 0.222222 0.444444
vt 0.222222 0.333333
vt 0.222222 0.666667
vt 0.222222 0.222222
vt 0.222222 0.555556
vt 0.250000 1.000000
vt 0.166667 0.333333
vt 0.166667 0.222222
vt 0.166667 0.666667
vt 0.166667 0.555556
vt 0.194444 1.000000
vt 0.166667 0.888889
vt 0.166667 0.111111
vt 0.166667 0.444444
vt 0.166667 0.777778
vt 0.194444 0.000000
vt 0.111111 0.555556
vt 0.111111 0.444444
vt 0.111111 0.888889
vt 0.111111 0.777778
vt 0.138889 0.000000
vt 0.111111 0.111111
vt 0.111111 0.333333
vt 0.111111 0.666667
vt 0.111111 0.222222
vt 0.138889 1.000000
vt 0.055556 0.777778
vt 0.055556 0.666667
vt 0.055556 0.333333
vt 0.055556 0.222222
vt 0.055556 0.555556
vt 0.083333 1.000000
vt 0.055556 0.888889
vt 0.055556 0.111111
vt 0.055556 0.444444
vt 0.083333 0.000000
vt 0.027778 1.000000
vt 0.000000 0.888889
vt 0.000000 0.222222
vt 0.000000 0.111111
vt 0.000000 0.555556
vt 0.000000 0.444444
vt 0.000000 0.777778
vt 0.027778 0.000000
vt 0.000000 0.333333
vt 0.000000 0.666667
vt 0.972222 0.000000
vt 1.000000 0.111111
vt 0.944444 0.111111
vt 1.000000 0.333333
vt 1.000000 0.444444
vt 0.944444 0.444444
vt 0.944444 0.333333
vt 1.000000 0.666667
vt 1.000000 0.777778
vt 0.944444 0.777778
vt 0.944444 0.666667
vt 1.000000 0.222222
vt 0.944444 0.222222
vt 1.000000 0.555556
vt 0.944444 0.555556
vt 1.000000 0.888889
vt 0.972222 1.000000
vt 0.944444 0.888889
vt 0.888889 0.333333
vt 0.888889 0.222222
vt 0.888889 0.666667
vt 0.888889 0.555556
vt 0.916667 1.000000
vt 0.888889 0.888889
vt 0.888889 0.111111
vt 0.888889 0.444444
vt 0.888889 0.777778
vt 0.916667 0.000000
vt 0.833333 0.555556
vt 0.833333 0.444444
vt 0.833333 0.888889
vt 0.833333 0.777778
vt 0.861111 0.000000
vt 0.833333 0.111111
vt 0.833333 0.333333
vt 0.833333 0.666667
vt 0.833333 0.222222
vt 0.861111 1.000000
vt 0.777778 0.777778
vt 0.777778 0.666667
vt 0.777778 0.333333
vt 0.777778 0.222222
vt 0.777778 0.555556
vt 0.805556 1.000000
vt 0.777778 0.888889
vt 0.777778 0.111111
vt 0.777778 0.444444
vt 0.805556 0.000000
vt 0.750000 1.000000
vt 0.750000 0.000000
s 0
f 146/1/1 145/2/1 7/3/1 8/4/1
f 143/5/2 142/6/2 4/7/2 5/8/2
f 140/9/3 139/10/3 1/11/3 2/12/3
f 82/13/4 146/1/4 8/4/4
f 144/14/5 143/5/5 5/8/5 6/15/5
f 141/16/6 140/9/6 2/12/6 3/17/6
f 145/2/7 144/14/7 6/15/7 7/3/7
f 142/6/8 141/16/8 3/17/8 4/7/8
f 139/10/9 25/18/9 1/11/9
f 6/15/10 5/8/10 13/19/10 14/20/10
f 3/17/11 2/12/11 10/21/11 11/22/11
f 7/3/12 6/15/12 14/20/12 15/23/12
f 4/7/13 3/17/13 11/22/13 12/24/13
f 1/11/14 25/25/14 9/26/14
f 8/4/15 7/3/15 15/23/15 16/27/15
f 5/8/16 4/7/16 12/24/16 13/19/16
f 2/12/17 1/11/17 9/26/17 10/21/17
f 82/28/18 8/4/18 16/27/18
f 12/24/19 11/22/19 19/29/19 20/30/19
f 9/26/20 25/31/20 17/32/20
f 16/27/21 15/23/21 23/33/21 24/34/21
f 13/19/22 12/24/22 20/30/22 21/35/22
f 10/21/23 9/26/23 17/32/23 18/36/23
f 82/37/24 16/27/24 24/34/24
f 14/20/25 13/19/25 21/35/25 22/38/25
f 11/22/26 10/21/26 18/36/26 19/29/26
f 15/23/27 14/20/27 22/38/27 23/33/27
f 18/36/28 17/32/28 26/39/28 27/40/28
f 82/41/29 24/34/29 33/42/29
f 22/38/30 21/35/30 30/43/30 31/44/30
f 19/29/31 18/36/31 27/40/31 28/45/31
f 23/33/32 22/38/32 31/44/32 32/46/32
f 20/30/33 19/29/33 28/45/33 29/47/33
f 17/32/34 25/48/34 26/39/34
f 24/34/35 23/33/35 32/46/35 33/42/35
f 21/35/36 20/30/36 29/47/36 30/43/36
f 32/46/37 31/44/37 39/49/37 40/50/37
f 29/47/38 28/45/38 36/51/38 37/52/38
f 26/39/39 25/53/39 34/54/39
f 33/42/40 32/46/40 40/50/40 41/55/40
f 30/43/41 29/47/41 37/52/41 38/56/41
f 27/40/42 26/39/42 34/54/42 35/57/42
f 82/58/43 33/42/43 41/55/43
f 31/44/44 30/43/44 38/56/44 39/49/44
f 28/45/45 27/40/45 35/57/45 36/51/45
f 41/55/46 40/50/46 48/59/46 49/60/46
f 38/56/47 37/52/47 45/61/47 46/62/47
f 35/57/48 34/54/48 42/63/48 43/64/48
f 82/65/49 41/55/49 49/60/49
f 39/49/50 38/56/50 46/62/50 47/66/50
f 36/51/51 35/57/51 43/64/51 44/67/51
f 40/50/52 39/49/52 47/66/52 48/59/52
f 37/52/53 36/51/53 44/67/53 45/61/53
f 34/54/54 25/68/54 42/63/54
f 47/66/55 46/62/55 54/69/55 55/70/55
f 44/67/56 43/64/56 51/71/56 52/72/56
f 48/59/57 47/66/57 55/70/57 56/73/57
f 45/61/58 44/67/58 52/72/58 53/74/58
f 42/63/59 25/75/59 50/76/59
f 49/60/60 48/59/60 56/73/60 57/77/60
f 46/62/61 45/61/61 53/74/61 54/69/61
f 43/64/62 42/63/62 50/76/62 51/71/62
f 82/78/63 49/60/63 57/77/63
f 53/74/64 52/72/64 60/79/64 61/80/64
f 50/76/65 25/81/65 58/82/65
f 57/77/66 56/73/66 64/83/66 65/84/66
f 54/69/67 53/74/67 61/80/67 62/85/67
f 51/71/68 50/76/68 58/82/68 59/86/68
f 82/87/69 57/77/69 65/84/69
f 55/70/70 54/69/70 62/85/70 63/88/70
f 52/72/71 51/71/71 59/86/71 60/79/71
f 56/73/72 55/70/72 63/88/72 64/83/72
f 59/86/73 58/82/73 66/89/73 67/90/73
f 82/91/74 65/84/74 73/92/74
f 63/88/75 62/85/75 70/93/75 71/94/75
f 60/79/76 59/86/76 67/90/76 68/95/76
f 64/83/77 63/88/77 71/94/77 72/96/77
f 61/80/78 60/79/78 68/95/78 69/97/78
f 58/82/79 25/98/79 66/89/79
f 65/84/80 64/83/80 72/96/80 73/92/80
f 62/85/81 61/80/81 69/97/81 70/93/81
f 72/96/82 71/94/82 79/99/82 80/100/82
f 69/97/83 68/95/83 76/101/83 77/102/83
f 66/89/84 25/103/84 74/104/84
f 73/92/85 72/96/85 80/100/85 81/105/85
f 70/93/86 69/97/86 77/102/86 78/106/86
f 67/90/87 66/89/87 74/104/87 75/107/87
f 82/108/88 73/92/88 81/105/88
f 71/94/89 70/93/89 78/106/89 79/99/89
f 68/95/90 67/90/90 75/107/90 76/101/90
f 78/106/91 77/102/91 86/109/91 87/110/91
f 75/107/92 74/104/92 83/111/92 84/112/92
f 82/113/93 81/105/93 90/114/93
f 79/99/94 78/106/94 87/110/94 88/115/94
f 76/101/95 75/107/95 84/112/95 85/116/95
f 80/100/96 79/99/96 88/115/96 89/117/96
f 77/102/97 76/101/97 85/116/97 86/109/97
f 74/104/98 25/118/98 83/111/98
f 81/105/99 80/100/99 89/117/99 90/114/99
f 85/116/100 84/112/100 92/119/100 93/120/100
f 89/117/101 88/115/101 96/121/101 97/122/101
f 86/109/102 85/116/102 93/120/102 94/123/102
f 83/111/103 25/124/103 91/125/103
f 90/114/104 89/117/104 97/122/104 98/126/104
f 87/110/105 86/109/105 94/123/105 95/127/105
f 84/112/106 83/111/106 91/125/106 92/119/106
f 82/128/107 90/114/107 98/126/107
f 88/115/108 87/110/108 95/127/108 96/121/108
f 91/125/109 25/129/109 99/130/109
f 98/126/110 97/122/110 105/131/110 106/132/110
f 95/127/111 94/123/111 102/133/111 103/134/111
f 92/119/112 91/125/112 99/130/112 100/135/112
f 82/136/113 98/126/113 106/132/113
f 96/121/114 95/127/114 103/134/114 104/137/114
f 93/120/115 92/119/115 100/135/115 101/138/115
f 97/122/116 96/121/116 104/137/116 105/131/116
f 94/123/117 93/120/117 101/138/117 102/133/117
f 82/139/118 106/140/118 114/141/118
f 104/142/119 103/143/119 111/144/119 112/145/119
f 101/146/120 100/147/120 108/148/120 109/149/120
f 105/150/121 104/142/121 112/145/121 113/151/121
f 102/152/122 101/146/122 109/149/122 110/153/122
f 99/154/123 25/155/123 107/156/123
f 106/140/124 105/150/124 113/151/124 114/141/124
f 103/143/125 102/152/125 110/153/125 111/144/125
f 100/147/126 99/154/126 107/156/126 108/148/126
f 113/151/127 112/145/127 120/157/127 121/158/127
f 110/153/128 109/149/128 117/159/128 118/160/128
f 107/156/129 25/161/129 115/162/129
f 114/141/130 113/151/130 121/158/130 122/163/130
f 111/144/131 110/153/131 118/160/131 119/164/131
f 108/148/132 107/156/132 115/162/132 116/165/132
f 82/166/133 114/141/133 122/163/133
f 112/145/134 111/144/134 119/164/134 120/157/134
f 109/149/135 108/148/135 116/165/135 117/159/135
f 119/164/136 118/160/136 126/167/136 127/168/136
f 116/165/137 115/162/137 123/169/137 124/170/137
f 82/171/138 122/163/138 130/172/138
f 120/157/139 119/164/139 127/168/139 128/173/139
f 117/159/140 116/165/140 124/170/140 125/174/140
f 121/158/141 120/157/141 128/173/141 129/175/141
f 118/160/142 117/159/142 125/174/142 126/167/142
f 115/162/143 25/176/143 123/169/143
f 122/163/144 121/158/144 129/175/144 130/172/144
f 125/174/145 124/170/145 132/177/145 133/178/145
f 129/175/146 128/173/146 136/179/146 137/180/146
f 126/167/147 125/174/147 133/178/147 134/181/147
f 123/169/148 25/182/148 131/183/148
f 130/172/149 129/175/149 137/180/149 138/184/149
f 127/168/150 126/167/150 134/181/150 135/185/150
f 124/170/151 123/169/151 131/183/151 132/177/151
f 82/186/152 130/172/152 138/184/152
f 128/173/153 127/168/153 135/185/153 136/179/153
f 131/183/154 25/187/154 139/10/154
f 138/184/155 137/180/155 145/2/155 146/1/155
f 135/185/156 134/181/156 142/6/156 143/5/156
f 132/177/157 131/183/157 139/10/157 140/9/157
f 82/188/158 138/184/158 146/1/158
f 136/179/159 135/185/159 143/5/159 144/14/159
f 133/178/160 132/177/160 140/9/160 141/16/160
f 137/180/161 136/179/161 144/14/161 145/2/161
f 134/181/162 133/178/162 141/16/162 142/6/162
